<svg width="44" height="44" viewBox="0 0 44 44" fill="none" xmlns="http://www.w3.org/2000/svg">
<g clip-path="url(#clip0_1768_3046)">
<path d="M29.1737 29.6522C29.1737 30.4446 27.0966 31.5652 26.3042 31.5652C25.5118 31.5652 24.8694 30.9229 24.8694 30.1305C24.8694 29.3381 25.99 25.3479 26.7824 25.3479C27.5748 25.3479 31.0868 26.3044 29.1737 29.6522Z" fill="#FFB13D"/>
<path d="M40.1737 5.26088C40.1737 6.05329 34.7488 3.34784 33.9563 3.34784C33.1639 3.34784 32.5216 2.70546 32.5216 1.91305C32.5216 1.12065 33.1639 0.478271 33.9563 0.478271C34.7488 0.478271 42.0868 1.91305 40.1737 5.26088Z" fill="#FFB13D"/>
<path d="M40.9824 37.0494C41.4712 36.4177 41.7547 35.6297 41.7547 34.7951C41.7547 33.3272 40.8843 32.0007 39.5373 31.4158C39.2494 31.2905 38.9188 31.2905 38.6307 31.4157C37.2836 32.0007 36.4132 33.3272 36.4132 34.7951C36.4132 35.6152 36.6869 36.3902 37.1602 37.0163H34.8272C35.3005 36.3903 35.5742 35.6153 35.5742 34.7951C35.5742 33.3992 34.7867 32.1316 33.5513 31.5076L34.0256 30.2043C34.1495 29.8639 34.1334 29.4956 33.9803 29.1673C33.8272 28.839 33.5554 28.5898 33.2149 28.4659L30.476 27.4691L30.4991 27.4057C30.623 27.0653 30.6068 26.697 30.4538 26.3688C30.3974 26.2478 30.3246 26.1378 30.2385 26.0406L35.996 10.222C36.1242 10.203 36.2505 10.1669 36.3713 10.1107C36.6996 9.95752 36.9487 9.68571 37.0726 9.34531L37.5595 8.00754C37.6488 7.7622 37.8536 7.57881 38.1073 7.51702L39.1203 7.27021C39.7938 7.10625 40.3373 6.6195 40.5744 5.96819L41.0271 4.72435C41.4171 3.65282 40.8625 2.46363 39.7909 2.07357L34.4397 0.12591C33.9206 -0.0629777 33.3589 -0.0384859 32.8582 0.195003C32.3575 0.428491 31.9777 0.842875 31.7888 1.36202C31.7543 1.46548 31.2911 2.70623 31.2838 2.77403C31.12 3.37928 31.2377 4.0269 31.6131 4.53779L32.2305 5.37798C32.3851 5.58836 32.4241 5.86043 32.3348 6.10586L31.8479 7.44363C31.724 7.78411 31.7401 8.15243 31.8931 8.48071C31.9496 8.60171 32.0223 8.71171 32.1085 8.80881L31.1442 11.4583C31.0224 11.7929 31.1949 12.1626 31.5294 12.2844C31.8638 12.4059 32.2337 12.2336 32.3556 11.8993L33.2642 9.40246L33.5667 9.51254L34.7286 9.93544L29.0829 25.4468L27.6186 24.9139L31.3268 14.7255C31.4486 14.391 31.2761 14.0212 30.9416 13.8994C30.6074 13.778 30.2372 13.9501 30.1155 14.2846L26.3514 24.6263C25.8748 24.6973 25.4504 25.0204 25.2744 25.5041L25.2514 25.5673L22.5124 24.5705C21.8097 24.3147 21.0299 24.6785 20.774 25.3812L19.3493 29.2956C18.8478 28.6936 18.1482 28.2606 17.3519 28.1013L13.9275 27.4164C13.0971 27.2503 12.4278 26.6121 12.2224 25.7906C11.5697 23.1794 9.234 21.3558 6.54248 21.3558H2.06847C0.928097 21.3558 0.000244141 22.2836 0.000244141 23.424V41.9318C0.000244141 43.0723 0.928011 43.9999 2.06847 43.9999H6.86173C7.21768 43.9999 7.50625 43.7114 7.50625 43.3554C7.50625 42.9994 7.21768 42.7109 6.86173 42.7109H2.06847C1.63879 42.7109 1.28929 42.3614 1.28929 41.9318V41.1526H42.7105V41.9318C42.7105 42.3614 42.361 42.7109 41.9313 42.7109H9.8695C9.51355 42.7109 9.22498 42.9994 9.22498 43.3554C9.22498 43.7114 9.51355 43.9999 9.8695 43.9999H41.9313C43.0718 43.9999 43.9996 43.0722 43.9996 41.9318V40.5081C43.9996 38.7438 42.684 37.2819 40.9824 37.0494ZM39.084 32.6252C39.9256 33.0183 40.4657 33.8629 40.4657 34.7951C40.4657 35.73 39.919 36.5751 39.084 36.9653C38.249 36.5751 37.7023 35.73 37.7023 34.7951C37.7023 33.8629 38.2424 33.0183 39.084 32.6252ZM34.2852 34.7951C34.2852 35.73 33.7386 36.5751 32.9036 36.9653C32.0685 36.5751 31.5219 35.73 31.5219 34.7951C31.5219 33.8629 32.062 33.0183 32.9036 32.6252C33.7451 33.0183 34.2852 33.8629 34.2852 34.7951ZM25.2684 29.2896L26.4857 25.9449C26.492 25.9276 26.5037 25.9147 26.5205 25.907C26.5373 25.8992 26.5546 25.8983 26.572 25.9048L29.2476 26.8787H29.2477C29.265 26.885 29.2778 26.8967 29.2857 26.9134C29.2935 26.9302 29.2942 26.9475 29.2879 26.9649L28.0706 30.3094C27.7894 31.0819 26.932 31.4816 26.1596 31.2006C25.387 30.9193 24.9872 30.062 25.2684 29.2896ZM37.8024 6.2645C37.129 6.42847 36.5853 6.91521 36.3483 7.56652L35.8614 8.90437C35.855 8.92173 35.8434 8.93454 35.8266 8.94227C35.8098 8.95026 35.7926 8.95087 35.7752 8.94459L33.0996 7.97068H33.0995C33.0821 7.9644 33.0693 7.95263 33.0616 7.93596C33.0538 7.9192 33.053 7.90193 33.0594 7.88448L33.5463 6.54672C33.7833 5.89541 33.6798 5.17311 33.2694 4.61461L32.7548 3.91441L38.6467 6.05886L37.8024 6.2645ZM33.0002 1.80287C33.0713 1.60728 33.2144 1.45113 33.403 1.36322C33.5917 1.27531 33.8033 1.26611 33.9988 1.33718L39.3501 3.28484C39.7538 3.43179 39.9627 3.87977 39.8158 4.28342L39.5493 5.01559L32.7337 2.53496L33.0002 1.80287ZM21.9853 25.8221C21.998 25.7872 22.0367 25.769 22.0716 25.7818L24.8104 26.7787L24.057 28.8486C23.5327 30.2891 24.2782 31.8875 25.7185 32.4119C26.0313 32.5256 26.3514 32.5796 26.6665 32.5796C27.8024 32.5796 28.8713 31.8779 29.2817 30.7503L30.0351 28.6803L32.7741 29.6772C32.8089 29.6898 32.827 29.7287 32.8143 29.7635L32.1615 31.5568C30.9802 32.1968 30.2328 33.435 30.2328 34.7951C30.2328 35.2672 30.3238 35.7242 30.491 36.1466L30.3796 36.4527C30.3098 36.6447 30.2285 36.8329 30.1389 37.0163H22.9882C21.9069 37.0163 20.9931 36.2422 20.8153 35.1756L20.1134 30.9646L21.9853 25.8221ZM1.28929 23.424C1.28929 22.9944 1.63879 22.6449 2.06847 22.6449H6.54239C8.6413 22.6449 10.4628 24.067 10.9719 26.1033C11.2974 27.4055 12.3583 28.4171 13.6747 28.6804L17.099 29.3653C17.9908 29.5437 18.6904 30.2661 18.8399 31.1633L19.5438 35.3875C19.6467 36.0048 19.9056 36.5597 20.2757 37.0162H14.8815C14.5255 37.0162 14.2369 37.3047 14.2369 37.6608C14.2369 38.0168 14.5255 38.3053 14.8815 38.3053H40.5076C41.498 38.3053 42.3377 38.9624 42.614 39.8636H1.28929V23.424Z" fill="url(#paint0_linear_1768_3046)"/>
<path d="M4.91577 26.9159H6.33941C6.69537 26.9159 6.98394 26.6274 6.98394 26.2714C6.98394 25.9153 6.69537 25.6268 6.33941 25.6268H4.91577C4.55982 25.6268 4.27124 25.9153 4.27124 26.2714C4.27124 26.6274 4.55982 26.9159 4.91577 26.9159Z" fill="url(#paint1_linear_1768_3046)"/>
<path d="M12.6786 31.9662C12.6786 31.6101 12.3901 31.3217 12.0341 31.3217H4.91576C4.55981 31.3217 4.27124 31.6101 4.27124 31.9662C4.27124 32.3222 4.55981 32.6107 4.91576 32.6107H12.0341C12.3901 32.6107 12.6786 32.3221 12.6786 31.9662Z" fill="url(#paint2_linear_1768_3046)"/>
<path d="M14.8143 34.8134C14.8143 34.4573 14.5257 34.1688 14.1697 34.1688H12.7461C12.3901 34.1688 12.1016 34.4573 12.1016 34.8134C12.1016 35.1694 12.3901 35.4579 12.7461 35.4579H14.1697C14.5257 35.4579 14.8143 35.1694 14.8143 34.8134Z" fill="url(#paint3_linear_1768_3046)"/>
</g>
<defs>
<linearGradient id="paint0_linear_1768_3046" x1="21.9999" y1="0.00012207" x2="21.9999" y2="43.9999" gradientUnits="userSpaceOnUse">
<stop stop-color="#6BA777"/>
<stop offset="1" stop-color="#3E6B47"/>
</linearGradient>
<linearGradient id="paint1_linear_1768_3046" x1="5.62759" y1="25.6268" x2="5.62759" y2="26.9159" gradientUnits="userSpaceOnUse">
<stop stop-color="#6BA777"/>
<stop offset="1" stop-color="#3E6B47"/>
</linearGradient>
<linearGradient id="paint2_linear_1768_3046" x1="8.47494" y1="31.3217" x2="8.47494" y2="32.6107" gradientUnits="userSpaceOnUse">
<stop stop-color="#6BA777"/>
<stop offset="1" stop-color="#3E6B47"/>
</linearGradient>
<linearGradient id="paint3_linear_1768_3046" x1="13.4579" y1="34.1688" x2="13.4579" y2="35.4579" gradientUnits="userSpaceOnUse">
<stop stop-color="#6BA777"/>
<stop offset="1" stop-color="#3E6B47"/>
</linearGradient>
<clipPath id="clip0_1768_3046">
<rect width="44" height="44" fill="white"/>
</clipPath>
</defs>
</svg>
