<svg width="44" height="44" viewBox="0 0 44 44" fill="none" xmlns="http://www.w3.org/2000/svg">
<path d="M39.2175 10.3264C39.2175 11.8142 37.9327 12.1225 36.3479 12.1225C34.7631 12.1225 31.087 9.56949 31.087 8.08171C31.087 6.59392 33.8066 5.83679 35.3914 5.83679C36.9762 5.83679 39.2175 8.83863 39.2175 10.3264Z" fill="#FFB13D"/>
<path d="M13.8696 33.6734C13.8696 33.6734 10.6718 34.5715 9.08702 34.5715C7.50221 34.5715 7.65224 36.9572 7.65224 35.4694C7.65224 33.9817 8.45873 29.1837 10.0435 29.1837C11.6284 29.1837 13.8696 32.1856 13.8696 33.6734Z" fill="#FFB13D"/>
<path d="M39.0889 7.26067L37.2277 5.51354C36.6691 4.98909 35.9263 4.70032 35.1362 4.70032C34.3462 4.70032 33.6034 4.98909 33.0447 5.51354L26.52 11.6388C26.2051 11.9344 26.2051 12.4138 26.52 12.7094C26.835 13.005 27.3456 13.005 27.6604 12.7094L31.1194 9.46211L34.8826 12.995L14.8514 31.7998L11.0881 28.267L25.7598 14.4935C26.0747 14.1979 26.0747 13.7187 25.7598 13.423C25.4449 13.1272 24.9343 13.1273 24.6194 13.423L9.37765 27.7317C9.29446 27.8098 9.23059 27.904 9.19023 28.0077L6.37493 35.2539C6.26741 35.5305 6.34049 35.8405 6.56236 36.0486C6.71632 36.1931 6.92241 36.2704 7.13268 36.2704C7.22541 36.2704 7.31879 36.2553 7.40889 36.2245L15.1278 33.5817C15.2382 33.5439 15.3386 33.4839 15.4217 33.4057L39.089 11.1875C40.2421 10.1048 40.2421 8.34322 39.0889 7.26067ZM8.48369 34.2449L10.2719 29.642L13.3867 32.566L8.48369 34.2449ZM37.9485 10.1168L36.0232 11.9242L32.26 8.39153L34.1852 6.58412C34.4393 6.34559 34.777 6.21432 35.1362 6.21432C35.4955 6.21432 35.8332 6.34566 36.0872 6.58412L37.9484 8.33126C38.2025 8.56979 38.3423 8.88681 38.3423 9.22404C38.3423 9.56127 38.2026 9.87829 37.9485 10.1168Z" fill="url(#paint0_linear_1768_3211)"/>
<path d="M42.8131 40.0145L26.9774 25.1473C26.6625 24.8517 26.1519 24.8517 25.8369 25.1473C25.522 25.443 25.522 25.9222 25.8369 26.218L40.2961 39.7928H35.4459V39.0792C35.4459 38.6611 35.0849 38.3222 34.6395 38.3222C34.1941 38.3222 33.8331 38.6611 33.8331 39.0792V39.7928H30.697V39.0792C30.697 38.6611 30.336 38.3222 29.8906 38.3222C29.4452 38.3222 29.0842 38.6611 29.0842 39.0792V39.7928H25.9482V39.0792C25.9482 38.6611 25.5871 38.3222 25.1418 38.3222C24.6964 38.3222 24.3353 38.6611 24.3353 39.0792V39.7928H21.1994V39.0792C21.1994 38.6611 20.8383 38.3222 20.393 38.3222C19.9476 38.3222 19.5865 38.6611 19.5865 39.0792V39.7928H16.4505V39.0792C16.4505 38.6611 16.0895 38.3222 15.6441 38.3222C15.1987 38.3222 14.8377 38.6611 14.8377 39.0792V39.7928H11.7017V39.0792C11.7017 38.6611 11.3407 38.3222 10.8953 38.3222C10.4499 38.3222 10.0889 38.6611 10.0889 39.0792V39.7928H6.95283V39.0792C6.95283 38.6611 6.5918 38.3222 6.14642 38.3222C5.70104 38.3222 5.34001 38.6611 5.34001 39.0792V39.7928H2.57511V4.38035L17.1826 18.0935C17.4975 18.3891 18.0082 18.3891 18.3229 18.0935C18.6378 17.7979 18.6378 17.3186 18.3229 17.023L2.33885 2.01739C2.10836 1.80085 1.76138 1.73618 1.4601 1.85325C1.15875 1.97047 0.96228 2.24651 0.96228 2.55272V40.5498C0.96228 40.9679 1.32332 41.3069 1.76869 41.3069H42.2428C42.5689 41.3069 42.8629 41.1224 42.9878 40.8395C43.1127 40.5567 43.0436 40.231 42.8131 40.0145Z" fill="url(#paint1_linear_1768_3211)"/>
<path d="M13.9888 21.0907L8.46764 15.9075C8.23689 15.6909 7.89016 15.6263 7.58889 15.7434C7.28753 15.8606 7.09106 16.1367 7.09106 16.4428V26.8656C7.09106 27.2838 7.4521 27.6227 7.89748 27.6227C8.34285 27.6227 8.70389 27.2838 8.70389 26.8656V18.2704L12.8485 22.1613C13.1634 22.4569 13.6741 22.4569 13.9889 22.1613C14.3037 21.8656 14.3037 21.3863 13.9888 21.0907Z" fill="url(#paint2_linear_1768_3211)"/>
<path d="M28.0171 34.2611L22.6432 29.2162C22.3283 28.9206 21.8176 28.9206 21.5028 29.2162C21.1879 29.5119 21.1879 29.9911 21.5028 30.2868L25.5001 34.0394H15.6853C15.2398 34.0394 14.8788 34.3783 14.8788 34.7964C14.8788 35.2145 15.2398 35.5535 15.6852 35.5535H27.4469C27.7731 35.5535 28.0671 35.369 28.1919 35.0861C28.3167 34.8032 28.2476 34.4776 28.0171 34.2611Z" fill="url(#paint3_linear_1768_3211)"/>
<defs>
<linearGradient id="paint0_linear_1768_3211" x1="23.1399" y1="4.70032" x2="23.1399" y2="36.2704" gradientUnits="userSpaceOnUse">
<stop stop-color="#6BA777"/>
<stop offset="1" stop-color="#3E6B47"/>
</linearGradient>
<linearGradient id="paint1_linear_1768_3211" x1="22.0058" y1="1.79565" x2="22.0058" y2="41.3069" gradientUnits="userSpaceOnUse">
<stop stop-color="#6BA777"/>
<stop offset="1" stop-color="#3E6B47"/>
</linearGradient>
<linearGradient id="paint2_linear_1768_3211" x1="10.658" y1="15.6858" x2="10.658" y2="27.6227" gradientUnits="userSpaceOnUse">
<stop stop-color="#6BA777"/>
<stop offset="1" stop-color="#3E6B47"/>
</linearGradient>
<linearGradient id="paint3_linear_1768_3211" x1="21.566" y1="28.9945" x2="21.566" y2="35.5535" gradientUnits="userSpaceOnUse">
<stop stop-color="#6BA777"/>
<stop offset="1" stop-color="#3E6B47"/>
</linearGradient>
</defs>
</svg>
