<svg width="44" height="44" viewBox="0 0 44 44" fill="none" xmlns="http://www.w3.org/2000/svg">
<path d="M7.24096 31.4079C8.19341 31.4079 9.09713 30.8665 9.52708 29.9463C9.72457 29.5237 9.92059 29.0996 10.1158 28.675L10.4293 28.7643C10.4884 28.7812 10.5478 28.7891 10.6063 28.7891C10.887 28.7891 11.1452 28.6044 11.2258 28.321C11.3234 27.9787 11.1248 27.6221 10.7825 27.5246L10.6573 27.4889C10.8424 27.0805 11.0264 26.6714 11.2093 26.2614L11.4641 26.3339C11.5232 26.3507 11.5825 26.3587 11.6411 26.3587C11.9217 26.3587 12.18 26.174 12.2606 25.8906C12.3581 25.5482 12.1596 25.1917 11.8173 25.0942L11.7367 25.0712C11.9169 24.6613 12.0964 24.2508 12.2744 23.8395L12.4988 23.9035C12.5579 23.9203 12.6172 23.9283 12.6758 23.9283C12.9564 23.9283 13.2147 23.7436 13.2953 23.4602C13.3928 23.1178 13.1943 22.7613 12.852 22.6637L12.7877 22.6454C12.9631 22.2341 13.1371 21.8219 13.3102 21.4095L13.5335 21.4731C13.5925 21.4899 13.6519 21.4979 13.7105 21.4979C13.9911 21.4979 14.2494 21.3131 14.33 21.0298C14.4275 20.6874 14.229 20.3309 13.8867 20.2333L13.8093 20.2112C13.98 19.7983 14.1494 19.385 14.3178 18.9713L14.5683 19.0427C14.6273 19.0595 14.6867 19.0675 14.7452 19.0675C15.0259 19.0675 15.2842 18.8827 15.3648 18.5994C15.4623 18.257 15.2638 17.9005 14.9215 17.8029L14.8032 17.7692C15.3227 16.4715 15.8301 15.1709 16.3246 13.8692C17.342 14.2672 18.3623 14.6546 19.3844 15.0294C19.6338 15.121 19.891 15.1651 20.1448 15.1651C20.8438 15.1651 21.5169 14.8308 21.9293 14.2355C23.0958 12.5518 23.8921 10.6814 24.2958 8.67595C24.4903 7.70906 24.0006 6.72868 23.1049 6.29195C18.4093 4.00411 13.5433 1.93274 8.64209 0.135606C7.7064 -0.208231 6.66019 0.118161 6.09833 0.929244C5.18781 2.2422 4.50057 3.67324 4.05549 5.18257C3.95477 5.52401 4.14994 5.88245 4.49137 5.98309C4.83289 6.08346 5.19125 5.88855 5.2918 5.54712C5.69794 4.17005 6.32563 2.86345 7.15768 1.6635C7.38525 1.33496 7.81279 1.20416 8.19779 1.34561C8.9311 1.61451 9.66346 1.89037 10.3948 2.17139C9.25156 4.25745 8.3157 6.45583 7.60482 8.72511C6.89514 8.39279 6.18856 8.056 5.48636 7.71379C5.36407 7.65441 5.25948 7.57096 5.17552 7.46586C4.95329 7.18785 4.54783 7.14239 4.26965 7.36463C3.99156 7.58677 3.94618 7.9924 4.16842 8.2705C4.3702 8.52298 4.63119 8.73147 4.92226 8.87292C5.90084 9.34988 6.88732 9.81678 7.87991 10.2745C7.11575 11.8897 6.36757 13.519 5.63727 15.1586L5.38513 15.0868C5.04318 14.9892 4.68619 15.1876 4.58865 15.53C4.49111 15.8724 4.68963 16.229 5.03192 16.3265L5.1109 16.349C4.93094 16.7591 4.75202 17.1697 4.5743 17.5809L4.35043 17.5172C4.00857 17.4196 3.6515 17.6181 3.55396 17.9604C3.45642 18.3028 3.65494 18.6594 3.99723 18.7569L4.06177 18.7753C3.88654 19.1869 3.71217 19.5988 3.53935 20.0113L3.31574 19.9476C2.97371 19.85 2.61681 20.0485 2.51927 20.3909C2.42173 20.7332 2.62024 21.0898 2.96253 21.1873L3.04134 21.2098C2.87092 21.6229 2.70197 22.0363 2.53405 22.45L2.28113 22.378C1.93918 22.2805 1.58211 22.4789 1.48466 22.8213C1.38712 23.1636 1.58564 23.5202 1.92793 23.6177L2.04979 23.6525C1.8841 24.067 1.7197 24.4818 1.55667 24.8968L1.24635 24.8083C0.904491 24.7108 0.547418 24.9092 0.449879 25.2516C0.352339 25.594 0.550856 25.9505 0.893147 26.0481L1.08625 26.1031C1.05858 26.1746 1.03056 26.2461 1.00298 26.3176C0.510121 27.5963 1.11203 29.0185 2.37317 29.5554L6.24305 31.2029C6.56995 31.3419 6.90838 31.4079 7.24096 31.4079ZM23.0315 8.42166C22.6627 10.2538 21.9352 11.9628 20.8692 13.5014C20.6415 13.83 20.2138 13.9611 19.8282 13.8193C19.095 13.5504 18.3628 13.2746 17.6318 12.9936C18.7748 10.908 19.7106 8.70964 20.4219 6.43976C21.1312 6.77191 21.8375 7.10853 22.5396 7.45065C22.9081 7.63035 23.1104 8.0297 23.0315 8.42166ZM11.6061 2.64285C14.1772 3.65631 16.7293 4.74266 19.2425 5.89354C18.5342 8.19324 17.587 10.4183 16.4205 12.5224C13.8483 11.5085 11.2963 10.4221 8.78423 9.27168C9.49219 6.97249 10.4394 4.74747 11.6061 2.64285ZM9.05305 10.8095C11.0568 11.7133 13.0841 12.5763 15.1256 13.3946C14.616 14.7363 14.0926 16.0768 13.5562 17.4142L6.88956 15.5153C7.59468 13.9358 8.31647 12.3661 9.05305 10.8095ZM6.3625 16.7055L13.0703 18.6161C12.9018 19.0297 12.7321 19.443 12.5612 19.8558L5.82504 17.9371C6.00302 17.5261 6.18212 17.1155 6.3625 16.7055ZM5.31174 19.1313L12.0615 21.0539C11.8881 21.4663 11.7134 21.8782 11.5377 22.2895L4.78854 20.3671C4.96171 19.9547 5.13625 19.5429 5.31174 19.1313ZM4.28916 21.5652L11.0234 23.4833C10.8451 23.8945 10.6654 24.3049 10.4849 24.7147L3.78109 22.8053C3.94936 22.3917 4.11849 21.9782 4.28916 21.5652ZM3.29632 24.0075L9.95668 25.9046C9.77338 26.3144 9.58921 26.7235 9.40376 27.1318L2.8026 25.2516C2.96589 24.8368 3.13046 24.422 3.29632 24.0075ZM2.20611 26.7812C2.2477 26.6733 2.2899 26.5656 2.33166 26.4578L8.86158 28.3177C8.69486 28.6793 8.52753 29.0404 8.35918 29.4006C8.07456 30.0096 7.3672 30.2802 6.74836 30.0169L2.87849 28.3693C2.25973 28.106 1.96445 27.4084 2.20611 26.7812Z" fill="url(#paint0_linear_1768_3159)"/>
<path d="M34.2761 39.9795C34.2669 39.8533 34.2208 39.7326 34.1436 39.6325L32.6465 37.692C32.4292 37.4102 32.0245 37.3578 31.7425 37.5754C31.4607 37.7928 31.4084 38.1976 31.6259 38.4794L33.0045 40.2663L33.162 42.4305L31.1083 41.7288L21.3581 29.0917C21.634 28.8416 21.9403 28.5824 22.2781 28.3218C22.6152 28.0617 22.9429 27.8317 23.2542 27.6286L30.1005 36.5029C30.2275 36.6676 30.4183 36.7538 30.6112 36.7538C30.7487 36.7538 30.8872 36.7099 31.0044 36.6195C31.2862 36.4021 31.3386 35.9973 31.1211 35.7155L24.3721 26.9671C25.1967 26.5284 25.7423 26.3452 25.7485 26.3431C26.9302 25.9685 27.5909 24.7011 27.2214 23.5179C26.8503 22.3296 25.5813 21.6649 24.3932 22.0359C24.3 22.0651 22.0798 22.7717 19.5199 24.7468C16.9589 26.7227 15.7131 28.6901 15.6615 28.7727C15 29.8297 15.3202 31.2268 16.3756 31.8874C16.7423 32.1168 17.1591 32.2302 17.5746 32.2302C18.0634 32.2302 18.5503 32.0732 18.952 31.7633C19.1631 31.6003 19.3426 31.4022 19.4811 31.1809C19.4864 31.1727 19.8021 30.6912 20.4349 30.0055L30.2063 42.6698C30.2835 42.7699 30.3885 42.8451 30.5082 42.886L33.6673 43.9654C33.7353 43.9887 33.8057 44.0001 33.8756 44.0001C34.0162 44.0001 34.155 43.9541 34.2694 43.8658C34.4407 43.7336 34.5343 43.5245 34.5185 43.3087L34.2761 39.9795ZM18.3926 30.4903C18.3312 30.5884 18.2544 30.6733 18.1645 30.7427C18.1644 30.7427 18.1644 30.7427 18.1644 30.7427C17.8461 30.9883 17.4019 31.009 17.0594 30.7946C16.6066 30.5112 16.4697 29.911 16.7542 29.4563C16.801 29.3816 17.9272 27.6036 20.3073 25.7673C22.6865 23.9316 24.6932 23.2926 24.7775 23.2663C24.8733 23.2364 24.9703 23.2221 25.0658 23.2221C25.4784 23.2221 25.8617 23.488 25.991 23.9022C26.1496 24.4098 25.8661 24.9535 25.355 25.1156C25.2823 25.1392 23.5517 25.7112 21.4909 27.3011C20.9334 27.7313 20.4537 28.1582 20.0492 28.5535C20.0473 28.5553 20.0455 28.5571 20.0436 28.5589C18.941 29.6369 18.4013 30.4766 18.3926 30.4903Z" fill="url(#paint1_linear_1768_3159)"/>
<path d="M11 34.5C11 35.3284 10.8284 38.5 10 38.5C9.17157 38.5 7 36.3284 7 35.5C7 34.6716 7.67157 34 8.5 34C9.32843 34 11 33.6716 11 34.5Z" fill="#FFB13D"/>
<path d="M11 39C11 39.8284 10.3284 42 9.5 42C8.67157 42 6.5 40.3284 6.5 39.5C6.5 38.6716 7.67157 38.5 8.5 38.5C9.32843 38.5 11 38.1716 11 39Z" fill="#FFB13D"/>
<path d="M38 7C38 7.82843 37.8284 9.00009 37 9.00009C36 8 29.5 7 30 5.50002C30 4.6716 35.1716 5.50003 36 5.50003C36.8284 5.50003 38 6.17157 38 7Z" fill="#FFB13D"/>
<path d="M29.4092 21.3395C29.4768 21.545 29.643 21.7028 29.8516 21.7598C29.9076 21.7751 29.9647 21.7826 30.0215 21.7826C30.1758 21.7826 30.3272 21.7271 30.4462 21.6228L32.2657 20.0287C32.3609 19.9453 32.4294 19.8357 32.4628 19.7137L35.4618 8.73531C35.9391 8.96983 36.2034 9.14996 36.2059 9.15159C36.5231 9.37658 36.889 9.48469 37.2519 9.4846C37.8182 9.4846 38.3769 9.2212 38.73 8.72749C39.0119 8.33355 39.1235 7.85341 39.0442 7.37543C38.9649 6.89753 38.7043 6.47909 38.3105 6.1973C38.2518 6.15536 36.8488 5.16244 34.5574 4.53655C32.2659 3.91058 30.5531 4.05229 30.4816 4.05856C29.9992 4.10102 29.5618 4.32867 29.25 4.69949C28.9374 5.07109 28.7888 5.54168 28.8313 6.0244C28.8976 6.77747 29.431 7.41694 30.1584 7.61571H30.1585C30.3652 7.67217 30.5793 7.69108 30.7857 7.67303C30.792 7.67251 31.1123 7.65172 31.6425 7.69228L28.6436 18.6703C28.6103 18.7923 28.6136 18.9214 28.6532 19.0416L29.4092 21.3395ZM30.6816 6.38843C30.6193 6.39393 30.5572 6.38851 30.4981 6.37236C30.2885 6.31504 30.1346 6.12984 30.1154 5.91156C30.1032 5.7726 30.1462 5.63682 30.2366 5.52939C30.3273 5.42154 30.4544 5.35528 30.5948 5.34299C30.61 5.34145 32.147 5.21469 34.2177 5.78033C36.2887 6.34606 37.5477 7.23672 37.5603 7.24583C37.6742 7.32739 37.7496 7.44839 37.7726 7.58658C37.7955 7.72476 37.7633 7.86364 37.6816 7.97768C37.5141 8.21195 37.1866 8.26703 36.9484 8.09799C36.9021 8.0656 35.7928 7.29808 33.9414 6.79242C32.6237 6.43243 31.5482 6.37889 31.0251 6.37889C30.8088 6.3788 30.6869 6.38791 30.6816 6.38843ZM32.929 7.87516C33.1428 7.91916 33.3676 7.97184 33.6016 8.03586C33.8351 8.09963 34.055 8.16829 34.261 8.23893L31.2704 19.1869L30.3293 20.0114L29.9383 18.8231L32.929 7.87516Z" fill="url(#paint2_linear_1768_3159)"/>
<path d="M19.8384 36.7805L19.2415 36.6647L19.2375 36.4006C19.2321 36.048 18.9447 35.7659 18.5932 35.7659C18.5899 35.7659 18.5866 35.7659 18.5832 35.766C18.2294 35.7713 17.9468 36.0609 17.9488 36.414L17.1511 36.2593L17.147 35.9953C17.1417 35.6427 16.8542 35.3605 16.5028 35.3605C16.4995 35.3605 16.4961 35.3605 16.4928 35.3606C16.139 35.3659 15.8563 35.6555 15.8584 36.0087L15.0607 35.854L15.0567 35.5899C15.0513 35.2339 14.7627 34.9494 14.4024 34.9552C14.0486 34.9606 13.766 35.2502 13.768 35.6033L12.105 35.2808L12.3525 34.004C12.385 33.8361 12.3496 33.6623 12.254 33.5206C12.1583 33.3789 12.0103 33.281 11.8425 33.2485L9.8967 32.8712C9.07032 32.7109 8.23062 32.8821 7.53263 33.3533C6.83473 33.8245 6.36215 34.5393 6.20188 35.3658L6.06996 36.0465C6.03739 36.2143 6.0728 36.3882 6.16845 36.5299C6.2641 36.6715 6.41208 36.7695 6.57992 36.802L7.74704 37.0282C7.8549 37.0491 7.94823 37.1108 8.00976 37.202C8.07129 37.2932 8.09372 37.4027 8.07266 37.5106C8.02952 37.7333 7.81365 37.8795 7.59038 37.8363L6.42326 37.61C6.25533 37.5775 6.08148 37.6129 5.93985 37.7086C5.79823 37.8042 5.70035 37.9523 5.66777 38.1202L5.53586 38.8008C5.37559 39.6273 5.54686 40.467 6.01797 41.1649C6.48917 41.8628 7.20392 42.3353 8.03047 42.4956L9.97628 42.8729C10.0177 42.881 10.059 42.8848 10.0997 42.8848C10.4022 42.8848 10.672 42.6708 10.7318 42.3628L10.9793 41.0858L13.8596 41.6443L13.8637 41.9084C13.869 42.261 14.1565 42.5431 14.508 42.5431C14.5112 42.5431 14.5146 42.5431 14.5179 42.543C14.8717 42.5377 15.1544 42.2481 15.1523 41.895L15.9501 42.0497L15.9541 42.3138C15.9595 42.6664 16.2469 42.9485 16.5984 42.9485C16.6017 42.9485 16.605 42.9485 16.6084 42.9484C16.9622 42.9431 17.2448 42.6535 17.2428 42.3004L18.0404 42.455L18.0445 42.7191C18.0498 43.0717 18.3373 43.3539 18.6888 43.3539C18.692 43.3539 18.6954 43.3539 18.6987 43.3538C19.0547 43.3484 19.3388 43.0554 19.3334 42.6995L19.3323 42.6305C19.8154 42.6102 20.2851 42.4586 20.696 42.1812C21.2814 41.7859 21.6779 41.1864 21.8123 40.4931L21.9312 39.8799C22.0656 39.1865 21.922 38.4822 21.5268 37.8969C21.1314 37.3113 20.5318 36.9149 19.8384 36.7805ZM8.27574 41.2301C7.78718 41.1353 7.36471 40.856 7.08618 40.4435C6.80766 40.031 6.70651 39.5347 6.8013 39.0461L6.81049 38.9983L7.34485 39.1018C8.26534 39.2806 9.15961 38.6767 9.3381 37.7561C9.42455 37.3102 9.33217 36.8573 9.07797 36.4808C8.82376 36.1043 8.43824 35.8493 7.99231 35.7629L7.45795 35.6592L7.46723 35.6113C7.56193 35.1227 7.84132 34.7003 8.25373 34.4217C8.66641 34.1432 9.16253 34.0421 9.65109 34.1368L10.964 34.3913L9.58861 41.4846L8.27574 41.2301ZM11.2246 39.8203L11.7668 37.0244L11.8595 36.5464L13.7877 36.9203L13.8396 40.3274L11.2246 39.8203ZM15.1326 40.5781L15.0807 37.171L15.8781 37.3256L15.93 40.7327L15.1326 40.5781ZM17.223 40.9834L17.1711 37.5763L17.9685 37.7309L18.0204 41.138L17.223 40.9834ZM20.6655 39.6343L20.5466 40.2475C20.4776 40.6028 20.2746 40.91 19.9746 41.1126C19.7745 41.2477 19.5473 41.3239 19.3126 41.3403L19.2614 37.9815L19.593 38.0458C19.9484 38.1147 20.2557 38.3179 20.4582 38.6179C20.6608 38.918 20.7344 39.2789 20.6655 39.6343Z" fill="url(#paint3_linear_1768_3159)"/>
<path d="M41.9452 17.8369L41.3381 17.5021C41.0264 17.3302 40.6344 17.4435 40.4625 17.7552L39.8883 18.7961C39.8353 18.8924 39.7478 18.9622 39.6422 18.9927C39.5366 19.0233 39.4254 19.0109 39.3292 18.9578C39.2329 18.9047 39.1631 18.8173 39.1326 18.7116C39.1021 18.606 39.1145 18.4949 39.1675 18.3987L39.7417 17.3576C39.9136 17.0459 39.8003 16.6539 39.4886 16.482L38.8815 16.1472C37.3596 15.3078 35.4383 15.8631 34.5987 17.3852L33.6416 19.1207C33.4697 19.4324 33.5829 19.8245 33.8946 19.9963L35.0337 20.6245L33.6167 23.1937L33.3642 23.1164C33.0237 23.0121 32.6634 23.2035 32.5592 23.5438C32.4554 23.8822 32.6442 24.2401 32.9808 24.3468L32.5884 25.0583L32.3359 24.981C31.9952 24.8766 31.6351 25.0681 31.5308 25.4084C31.4271 25.7468 31.6158 26.1047 31.9524 26.2114L31.56 26.9229L31.3076 26.8456C30.967 26.7411 30.6069 26.9327 30.5026 27.273C30.3983 27.6134 30.5897 27.9739 30.9301 28.0781L30.9948 28.098C30.8657 28.564 30.8668 29.0578 31.0045 29.5341C31.2006 30.2126 31.6492 30.7742 32.2677 31.1152L32.8146 31.4169C33.2111 31.6356 33.6471 31.7469 34.0877 31.7469C34.3343 31.7469 34.5824 31.7121 34.8259 31.6417C35.5044 31.4455 36.0659 30.9969 36.407 30.3784L36.7006 29.8459L36.9531 29.9233C37.016 29.9426 37.0797 29.9517 37.1422 29.9517C37.4179 29.9517 37.6732 29.7732 37.7582 29.4958C37.8619 29.1575 37.6732 28.7996 37.3365 28.6929L37.7289 27.9813L37.9814 28.0587C38.0443 28.078 38.108 28.0871 38.1705 28.0871C38.4463 28.0871 38.7015 27.9086 38.7865 27.6312C38.8902 27.2929 38.7015 26.935 38.3649 26.8283L38.7573 26.1167L39.0097 26.1941C39.0726 26.2134 39.1363 26.2225 39.1987 26.2225C39.4745 26.2225 39.7297 26.044 39.8147 25.7666C39.9185 25.4283 39.7297 25.0704 39.3932 24.9637L40.2114 23.4803L41.3503 24.1084C41.4489 24.1628 41.5558 24.1886 41.6609 24.1886C41.8882 24.1886 42.1084 24.0682 42.2259 23.8553L43.1832 22.1198C44.0226 20.5976 43.4673 18.6763 41.9452 17.8369ZM36.1624 21.2472L39.0826 22.8577L38.134 24.5777L34.876 23.5796L36.1624 21.2472ZM35.2782 29.7558C35.1034 30.0727 34.8156 30.3027 34.4678 30.4032C34.1202 30.5037 33.754 30.4628 33.437 30.288L32.8901 29.9864C32.5732 29.8116 32.3433 29.5238 32.2427 29.176C32.1757 28.9441 32.173 28.7043 32.2295 28.4761L35.4413 29.46L35.2782 29.7558ZM36.0774 28.3068L32.8193 27.3087L33.2116 26.5975L36.4697 27.5956L36.0774 28.3068ZM37.1057 26.4422L33.8476 25.4441L34.2399 24.7329L37.4979 25.731L37.1057 26.4422ZM42.0545 21.4971L41.4085 22.6682L35.0815 19.1787L35.7274 18.0076C36.2236 17.1079 37.3593 16.7798 38.2589 17.2759L38.3016 17.2994L38.0387 17.776C37.8193 18.1738 37.768 18.6332 37.8942 19.0696C38.0204 19.5061 38.3088 19.8672 38.7066 20.0865C39.1042 20.3058 39.5635 20.3571 40.0001 20.231C40.4365 20.1049 40.7976 19.8163 41.017 19.4186L41.2799 18.942L41.3227 18.9655C42.2224 19.4619 42.5506 20.5975 42.0545 21.4971Z" fill="url(#paint4_linear_1768_3159)"/>
<defs>
<linearGradient id="paint0_linear_1768_3159" x1="12.3816" y1="0" x2="12.3816" y2="31.4079" gradientUnits="userSpaceOnUse">
<stop stop-color="#6BA777"/>
<stop offset="1" stop-color="#3E6B47"/>
</linearGradient>
<linearGradient id="paint1_linear_1768_3159" x1="24.9187" y1="21.9331" x2="24.9187" y2="44.0001" gradientUnits="userSpaceOnUse">
<stop stop-color="#6BA777"/>
<stop offset="1" stop-color="#3E6B47"/>
</linearGradient>
<linearGradient id="paint2_linear_1768_3159" x1="33.845" y1="4.04053" x2="33.845" y2="21.7826" gradientUnits="userSpaceOnUse">
<stop stop-color="#6BA777"/>
<stop offset="1" stop-color="#3E6B47"/>
</linearGradient>
<linearGradient id="paint3_linear_1768_3159" x1="13.7288" y1="32.8126" x2="13.7288" y2="43.3539" gradientUnits="userSpaceOnUse">
<stop stop-color="#6BA777"/>
<stop offset="1" stop-color="#3E6B47"/>
</linearGradient>
<linearGradient id="paint4_linear_1768_3159" x1="37.0244" y1="15.7557" x2="37.0244" y2="31.7469" gradientUnits="userSpaceOnUse">
<stop stop-color="#6BA777"/>
<stop offset="1" stop-color="#3E6B47"/>
</linearGradient>
</defs>
</svg>
