<svg width="39" height="30" viewBox="0 0 39 30" fill="none" xmlns="http://www.w3.org/2000/svg">
<g clip-path="url(#clip0_1768_3134)">
<path d="M13.4503 12.9548L11.0888 12.5161C10.4366 12.395 10.0062 11.7681 10.1273 11.116L11.0048 6.39316C11.1259 5.7411 11.7527 5.31069 12.4048 5.43181L37.7902 10.1477L33.0175 15.6809C32.599 16.166 31.9543 16.3923 31.3244 16.2753L15.8117 13.3935" stroke="#2E5235" stroke-width="1.1236" stroke-linecap="round" stroke-linejoin="round"/>
<path d="M11.6791 12.6258L11.4597 13.8064C11.3386 14.4586 11.769 15.0854 12.4211 15.2065L33.674 19.1548C34.3261 19.2759 34.9529 18.8455 35.074 18.1933L36.1708 12.2898" stroke="#2E5235" stroke-width="1.1236" stroke-linecap="round" stroke-linejoin="round"/>
<path d="M16.1737 16.1071V18.3713" stroke="#2E5235" stroke-width="1.1236" stroke-linecap="round" stroke-linejoin="round"/>
<path d="M13.7719 18.3088V15.6192" stroke="#2E5235" stroke-width="1.1236" stroke-linecap="round" stroke-linejoin="round"/>
<path fill-rule="evenodd" clip-rule="evenodd" d="M16.7742 19.8224C16.7742 20.8173 15.9676 21.6237 14.9728 21.6237C13.9779 21.6237 13.1714 20.8173 13.1714 19.8224C13.1714 18.8275 13.9779 18.021 14.9728 18.021C15.9676 18.021 16.7742 18.8275 16.7742 19.8224Z" stroke="#2E5235" stroke-width="1.1236" stroke-linecap="round" stroke-linejoin="round"/>
<path d="M2.9635 25.2266H12.5708C13.8974 25.2266 14.9727 24.1512 14.9727 22.8247V21.6238H2.9635" stroke="#2E5235" stroke-width="1.1236" stroke-linecap="round" stroke-linejoin="round"/>
<path fill-rule="evenodd" clip-rule="evenodd" d="M1.76267 29.4297H0.561768L0.561768 19.8224H1.76267C2.42589 19.8224 2.96357 20.3601 2.96357 21.0233L2.96357 28.2288C2.96357 28.8921 2.42589 29.4297 1.76267 29.4297Z" stroke="#2E5235" stroke-width="1.1236" stroke-linecap="round" stroke-linejoin="round"/>
<path d="M8.36768 6.6123C8.36768 4.62257 9.98071 3.00953 11.9704 3.00953" stroke="#2E5235" stroke-width="1.1236" stroke-linecap="round" stroke-linejoin="round"/>
<path d="M5.96582 6.6123C5.96582 3.29605 8.65421 0.60766 11.9705 0.60766" stroke="#2E5235" stroke-width="1.1236" stroke-linecap="round" stroke-linejoin="round"/>
</g>
<defs>
<clipPath id="clip0_1768_3134">
<rect width="38.3708" height="30" fill="white"/>
</clipPath>
</defs>
</svg>
