<svg width="39" height="30" viewBox="0 0 39 30" fill="none" xmlns="http://www.w3.org/2000/svg">
<g clip-path="url(#clip0_1768_3145)">
<path d="M24.9206 12.9548L27.2821 12.5161C27.9342 12.395 28.3646 11.7681 28.2435 11.116L27.3661 6.39316C27.2449 5.7411 26.6181 5.31069 25.9661 5.43181L0.580662 10.1477L5.3534 15.6809C5.7719 16.166 6.41654 16.3923 7.04643 16.2753L22.5592 13.3935" stroke="#2E5235" stroke-width="1.1236" stroke-linecap="round" stroke-linejoin="round"/>
<path d="M26.6918 12.6258L26.9111 13.8064C27.0322 14.4586 26.6018 15.0854 25.9498 15.2065L4.69688 19.1548C4.04474 19.2759 3.41793 18.8455 3.2968 18.1933L2.2001 12.2898" stroke="#2E5235" stroke-width="1.1236" stroke-linecap="round" stroke-linejoin="round"/>
<path d="M22.1971 16.1071V18.3713" stroke="#2E5235" stroke-width="1.1236" stroke-linecap="round" stroke-linejoin="round"/>
<path d="M24.599 18.3088V15.6192" stroke="#2E5235" stroke-width="1.1236" stroke-linecap="round" stroke-linejoin="round"/>
<path fill-rule="evenodd" clip-rule="evenodd" d="M21.5967 19.8224C21.5967 20.8173 22.4032 21.6237 23.398 21.6237C24.3929 21.6237 25.1995 20.8173 25.1995 19.8224C25.1995 18.8275 24.3929 18.021 23.398 18.021C22.4032 18.021 21.5967 18.8275 21.5967 19.8224Z" stroke="#2E5235" stroke-width="1.1236" stroke-linecap="round" stroke-linejoin="round"/>
<path d="M35.4073 25.2266H25.8C24.4735 25.2266 23.3981 24.1512 23.3981 22.8247V21.6238H35.4073" stroke="#2E5235" stroke-width="1.1236" stroke-linecap="round" stroke-linejoin="round"/>
<path fill-rule="evenodd" clip-rule="evenodd" d="M36.6082 29.4297H37.8091V19.8224H36.6082C35.945 19.8224 35.4073 20.3601 35.4073 21.0233V28.2288C35.4073 28.8921 35.945 29.4297 36.6082 29.4297Z" stroke="#2E5235" stroke-width="1.1236" stroke-linecap="round" stroke-linejoin="round"/>
<path d="M30.0032 6.6123C30.0032 4.62257 28.3901 3.00953 26.4004 3.00953" stroke="#2E5235" stroke-width="1.1236" stroke-linecap="round" stroke-linejoin="round"/>
<path d="M32.405 6.6123C32.405 3.29605 29.7166 0.60766 26.4004 0.60766" stroke="#2E5235" stroke-width="1.1236" stroke-linecap="round" stroke-linejoin="round"/>
</g>
<defs>
<clipPath id="clip0_1768_3145">
<rect width="38.3708" height="30" fill="white" transform="matrix(-1 0 0 1 38.3708 0)"/>
</clipPath>
</defs>
</svg>
