<svg width="44" height="44" viewBox="0 0 44 44" fill="none" xmlns="http://www.w3.org/2000/svg">
<g clip-path="url(#clip0_1768_2998)">
<path d="M41.8352 20.0982C43.0129 20.0982 43.9711 19.14 43.9711 17.9623V11.2828C43.9711 10.1051 43.0129 9.14694 41.8352 9.14694H41.1947V7.35007C41.1947 6.93955 41.0706 6.54467 40.8357 6.20822L39.8281 4.76439C39.6243 4.47237 39.2226 4.40113 38.9306 4.60471C38.6387 4.80839 38.5672 5.21023 38.771 5.50216L39.7786 6.94608C39.8617 7.06519 39.9057 7.20492 39.9057 7.35016V41.6077C39.9057 42.216 39.4108 42.711 38.8023 42.711H32.636C32.0275 42.711 31.5326 42.216 31.5326 41.6077V7.35007C31.5326 7.20484 31.5765 7.0651 31.6597 6.94591L35.544 1.37974C35.6291 1.25788 35.809 1.25753 35.8942 1.37974L37.0515 3.03807C37.2554 3.33009 37.657 3.4015 37.949 3.19775C38.2409 2.99407 38.3124 2.59223 38.1086 2.3003L36.9513 0.64205C36.3539 -0.214146 35.0842 -0.213888 34.4869 0.64205L30.6026 6.20814C30.3677 6.54467 30.2435 6.93955 30.2435 7.35007V9.14694H27.479V7.35007C27.479 6.93955 27.3548 6.54467 27.1199 6.20822L23.2355 0.64205C22.6381 -0.214146 21.3684 -0.213888 20.7711 0.64205L16.8867 6.20814C16.6518 6.54467 16.5276 6.93955 16.5276 7.35007V9.14694H13.7631V7.35007C13.7631 6.93955 13.6389 6.54467 13.404 6.20822L9.51965 0.64205C8.92221 -0.214146 7.65248 -0.213888 7.05522 0.64205L3.17084 6.20822C2.93597 6.54475 2.81179 6.93964 2.81179 7.35007V9.14694H2.16494C0.987256 9.14694 0.0290527 10.1051 0.0290527 11.2828V17.9623C0.0290527 19.14 0.987256 20.0982 2.16494 20.0982H2.81179V22.9027C2.81179 23.2587 3.10037 23.5472 3.45633 23.5472C3.81228 23.5472 4.10086 23.2587 4.10086 22.9027V7.35007C4.10086 7.20484 4.14477 7.06502 4.22796 6.94591L8.11233 1.37974C8.19741 1.25788 8.37728 1.25753 8.46253 1.37974L12.3469 6.94591C12.43 7.06502 12.474 7.20475 12.474 7.34999V41.6075C12.474 42.2159 11.9791 42.7109 11.3707 42.7109H5.20421C4.59577 42.7109 4.10086 42.2159 4.10086 41.6075V25.917C4.10086 25.5609 3.81228 25.2724 3.45633 25.2724C3.10037 25.2724 2.81179 25.5609 2.81179 25.917V28.7781H2.16494C0.987256 28.7781 0.0290527 29.7363 0.0290527 30.914V37.5935C0.0290527 38.7711 0.987256 39.7293 2.16494 39.7293H2.81179V41.6076C2.81179 42.9268 3.88498 44 5.20421 44H11.3706C12.6898 44 13.763 42.9268 13.763 41.6076V39.7293H16.5275V41.6076C16.5275 42.9268 17.6007 44 18.9199 44H25.0863C26.4055 44 27.4787 42.9268 27.4787 41.6076V39.7293H30.2432V41.6076C30.2432 42.9268 31.3164 44 32.6356 44H38.802C40.1212 44 41.1944 42.9268 41.1944 41.6076V39.7293H41.8349C43.0126 39.7293 43.9708 38.7711 43.9708 37.5935V30.914C43.9708 29.7363 43.0126 28.7781 41.8349 28.7781H41.1944V20.0982H41.8352ZM2.16494 18.8092C1.69804 18.8092 1.31812 18.4293 1.31812 17.9623V11.2828C1.31812 10.8158 1.69796 10.436 2.16494 10.436H2.81179V18.8091H2.16494V18.8092ZM2.16494 38.4403C1.69804 38.4403 1.31812 38.0604 1.31812 37.5935V30.914C1.31812 30.447 1.69796 30.0671 2.16494 30.0671H2.81179V38.4402H2.16494V38.4403ZM27.4789 20.0982H30.2434V28.7781H27.4789V20.0982ZM30.2435 10.4361V18.8092H27.479V10.4361H30.2435ZM13.7631 20.0982H16.5276V28.7781H13.7631V20.0982ZM16.5276 10.4361V18.8092H13.7631V10.4361H16.5276ZM13.7631 38.4403V30.0672H16.5276V38.4403H13.7631ZM26.1898 41.6076C26.1898 42.216 25.6949 42.7109 25.0865 42.7109H18.9201C18.3117 42.7109 17.8167 42.216 17.8167 41.6076V7.35007C17.8167 7.20484 17.8607 7.0651 17.9438 6.94591L21.8281 1.37974C21.9132 1.25788 22.0931 1.25753 22.1783 1.37974L26.0627 6.94591C26.1458 7.06502 26.1898 7.20475 26.1898 7.34999V41.6076ZM27.4789 38.4403V30.0672H30.2434V38.4403H27.4789ZM41.8352 10.4361C42.3021 10.4361 42.6821 10.8159 42.6821 11.2829V17.9624C42.6821 18.4294 42.3021 18.8092 41.8352 18.8092H41.1947V10.4362H41.8352V10.4361ZM41.8352 30.0672C42.3021 30.0672 42.6821 30.4471 42.6821 30.914V37.5935C42.6821 38.0605 42.3021 38.4404 41.8352 38.4404H41.1947V30.0673H41.8352V30.0672Z" fill="url(#paint0_linear_1768_2998)"/>
<circle cx="8.5" cy="14.5" r="1.5" fill="#FFB13D"/>
<circle cx="22.5" cy="14.5" r="1.5" fill="#FFB13D"/>
<circle cx="35.5" cy="14.5" r="1.5" fill="#FFB13D"/>
<circle cx="35.5" cy="34.5" r="1.5" fill="#FFB13D"/>
<circle cx="22.5" cy="34.5" r="1.5" fill="#FFB13D"/>
<circle cx="8.5" cy="34.5" r="1.5" fill="#FFB13D"/>
<path d="M35.7191 31.9595C34.4796 31.9595 33.4712 32.9679 33.4712 34.2074C33.4712 35.4469 34.4796 36.4553 35.7191 36.4553C36.9585 36.4553 37.9669 35.4469 37.9669 34.2074C37.9669 32.9679 36.9585 31.9595 35.7191 31.9595ZM35.7191 35.1662C35.1904 35.1662 34.7603 34.7361 34.7603 34.2075C34.7603 33.6788 35.1904 33.2487 35.7191 33.2487C36.2477 33.2487 36.6778 33.6788 36.6778 34.2075C36.6778 34.7361 36.2477 35.1662 35.7191 35.1662Z" fill="url(#paint1_linear_1768_2998)"/>
<path d="M35.7191 12.3748C34.4796 12.3748 33.4712 13.3832 33.4712 14.6227C33.4712 15.8622 34.4796 16.8706 35.7191 16.8706C36.9585 16.8706 37.9669 15.8622 37.9669 14.6227C37.9668 13.3831 36.9585 12.3748 35.7191 12.3748ZM35.7191 15.5814C35.1904 15.5814 34.7603 15.1513 34.7603 14.6227C34.7603 14.094 35.1904 13.6639 35.7191 13.6639C36.2477 13.6639 36.6778 14.094 36.6778 14.6227C36.6778 15.1513 36.2477 15.5814 35.7191 15.5814Z" fill="url(#paint2_linear_1768_2998)"/>
<path d="M22.0001 31.9595C20.7606 31.9595 19.7522 32.9679 19.7522 34.2074C19.7522 35.4469 20.7606 36.4553 22.0001 36.4553C23.2395 36.4553 24.2479 35.4469 24.2479 34.2074C24.2479 32.9679 23.2395 31.9595 22.0001 31.9595ZM22.0001 35.1662C21.4715 35.1662 21.0413 34.7361 21.0413 34.2075C21.0413 33.6788 21.4715 33.2487 22.0001 33.2487C22.5287 33.2487 22.9588 33.6788 22.9588 34.2075C22.9588 34.7361 22.5287 35.1662 22.0001 35.1662Z" fill="url(#paint3_linear_1768_2998)"/>
<path d="M22.0001 12.3748C20.7606 12.3748 19.7522 13.3832 19.7522 14.6227C19.7522 15.8622 20.7606 16.8706 22.0001 16.8706C23.2395 16.8706 24.2479 15.8622 24.2479 14.6227C24.2479 13.3831 23.2395 12.3748 22.0001 12.3748ZM22.0001 15.5814C21.4715 15.5814 21.0413 15.1513 21.0413 14.6227C21.0413 14.094 21.4715 13.6639 22.0001 13.6639C22.5287 13.6639 22.9588 14.094 22.9588 14.6227C22.9588 15.1513 22.5287 15.5814 22.0001 15.5814Z" fill="url(#paint4_linear_1768_2998)"/>
<path d="M8.28742 36.4553C9.52689 36.4553 10.5353 35.4469 10.5353 34.2074C10.5353 32.9679 9.52689 31.9595 8.28742 31.9595C7.04794 31.9595 6.03955 32.9679 6.03955 34.2074C6.03955 35.4469 7.04794 36.4553 8.28742 36.4553ZM8.28742 33.2486C8.81611 33.2486 9.24622 33.6787 9.24622 34.2074C9.24622 34.736 8.81611 35.1661 8.28742 35.1661C7.75882 35.1661 7.3287 34.736 7.3287 34.2074C7.3287 33.6787 7.75882 33.2486 8.28742 33.2486Z" fill="url(#paint5_linear_1768_2998)"/>
<path d="M8.28742 16.8705C9.52689 16.8705 10.5353 15.8621 10.5353 14.6226C10.5353 13.3831 9.52689 12.3746 8.28742 12.3746C7.04794 12.3746 6.03955 13.3831 6.03955 14.6226C6.03964 15.8621 7.04794 16.8705 8.28742 16.8705ZM8.28742 13.6638C8.81611 13.6638 9.24622 14.0939 9.24622 14.6226C9.24622 15.1512 8.81611 15.5813 8.28742 15.5813C7.75882 15.5813 7.3287 15.1512 7.3287 14.6226C7.3287 14.0939 7.75882 13.6638 8.28742 13.6638Z" fill="url(#paint6_linear_1768_2998)"/>
</g>
<defs>
<linearGradient id="paint0_linear_1768_2998" x1="22.0001" y1="0" x2="22.0001" y2="44" gradientUnits="userSpaceOnUse">
<stop stop-color="#6BA777"/>
<stop offset="1" stop-color="#3E6B47"/>
</linearGradient>
<linearGradient id="paint1_linear_1768_2998" x1="35.7191" y1="31.9595" x2="35.7191" y2="36.4553" gradientUnits="userSpaceOnUse">
<stop stop-color="#6BA777"/>
<stop offset="1" stop-color="#3E6B47"/>
</linearGradient>
<linearGradient id="paint2_linear_1768_2998" x1="35.7191" y1="12.3748" x2="35.7191" y2="16.8706" gradientUnits="userSpaceOnUse">
<stop stop-color="#6BA777"/>
<stop offset="1" stop-color="#3E6B47"/>
</linearGradient>
<linearGradient id="paint3_linear_1768_2998" x1="22.0001" y1="31.9595" x2="22.0001" y2="36.4553" gradientUnits="userSpaceOnUse">
<stop stop-color="#6BA777"/>
<stop offset="1" stop-color="#3E6B47"/>
</linearGradient>
<linearGradient id="paint4_linear_1768_2998" x1="22.0001" y1="12.3748" x2="22.0001" y2="16.8706" gradientUnits="userSpaceOnUse">
<stop stop-color="#6BA777"/>
<stop offset="1" stop-color="#3E6B47"/>
</linearGradient>
<linearGradient id="paint5_linear_1768_2998" x1="8.28742" y1="31.9595" x2="8.28742" y2="36.4553" gradientUnits="userSpaceOnUse">
<stop stop-color="#6BA777"/>
<stop offset="1" stop-color="#3E6B47"/>
</linearGradient>
<linearGradient id="paint6_linear_1768_2998" x1="8.28742" y1="12.3746" x2="8.28742" y2="16.8705" gradientUnits="userSpaceOnUse">
<stop stop-color="#6BA777"/>
<stop offset="1" stop-color="#3E6B47"/>
</linearGradient>
<clipPath id="clip0_1768_2998">
<rect width="44" height="44" fill="white"/>
</clipPath>
</defs>
</svg>
