<svg width="16" height="15" viewBox="0 0 16 15" fill="none" xmlns="http://www.w3.org/2000/svg">
<path d="M8.98926 1.11914C8.69472 0.826653 8.21746 0.826693 7.92285 1.11914C7.62782 1.41212 7.62784 1.88764 7.92285 2.18066L12.5234 6.75H0.920898C0.504686 6.7501 0.166992 7.0849 0.166992 7.5C0.167004 7.91508 0.504681 8.2499 0.920898 8.25H12.5234L7.92285 12.8193C7.62782 13.1123 7.62784 13.5878 7.92285 13.8809C8.07021 14.0271 8.26345 14.0996 8.45605 14.0996C8.64865 14.0996 8.84196 14.0271 8.98926 13.8809L14.8789 8.03027C15.1737 7.73734 15.1736 7.2627 14.8789 6.96973L8.98926 1.11914Z" fill="white" stroke="white" stroke-width="0.2"/>
</svg>
